<svg id="svg" version="1.1" xmlns="http://www.w3.org/2000/svg" xmlns:xlink="http://www.w3.org/1999/xlink" width="400" height="93.18681318681318" viewBox="0, 0, 400,93.18681318681318"><g id="svgg"><path id="path0" d="M36.965 13.458 C 36.760 13.884,36.668 13.918,35.679 13.935 C 34.730 13.952,34.578 14.002,34.292 14.394 C 34.005 14.788,33.864 14.833,32.930 14.833 C 31.979 14.833,31.870 14.870,31.697 15.250 C 31.503 15.676,31.378 15.728,30.693 15.671 C 30.411 15.648,30.061 15.898,29.437 16.569 C 28.699 17.362,28.483 17.500,27.979 17.500 C 27.515 17.500,27.347 17.587,27.204 17.902 C 27.103 18.123,26.866 18.353,26.677 18.413 C 26.488 18.473,26.333 18.592,26.333 18.678 C 26.333 19.033,25.005 20.192,24.632 20.161 C 23.952 20.105,23.828 20.160,23.667 20.583 C 23.580 20.813,23.426 21.000,23.324 21.000 C 23.118 21.000,21.833 22.326,21.833 22.538 C 21.833 22.613,21.646 22.746,21.417 22.833 C 21.075 22.963,21.000 23.104,21.000 23.611 C 21.000 24.191,19.970 25.500,19.513 25.500 C 19.444 25.500,19.301 25.688,19.197 25.917 C 19.093 26.146,18.898 26.333,18.765 26.333 C 18.632 26.333,18.473 26.488,18.414 26.676 C 18.354 26.865,18.124 27.088,17.902 27.172 C 17.576 27.296,17.500 27.444,17.497 27.954 C 17.495 28.658,17.381 28.893,16.968 29.045 C 16.777 29.115,16.670 29.377,16.635 29.865 C 16.592 30.463,16.506 30.618,16.109 30.807 C 15.694 31.005,15.643 31.108,15.703 31.625 C 15.763 32.135,15.707 32.254,15.304 32.484 C 14.785 32.779,14.590 34.690,15.033 35.133 C 15.281 35.381,72.434 35.423,72.825 35.176 C 73.379 34.825,73.268 32.928,72.668 32.501 C 72.223 32.184,72.150 32.042,72.228 31.651 C 72.305 31.265,72.234 31.118,71.828 30.829 C 71.422 30.541,71.333 30.359,71.333 29.818 C 71.333 29.268,71.264 29.132,70.917 29.000 C 70.579 28.872,70.500 28.728,70.500 28.243 C 70.500 27.644,68.870 25.742,68.105 25.448 C 67.910 25.373,67.833 25.134,67.833 24.600 C 67.833 23.995,67.769 23.835,67.490 23.747 C 67.301 23.687,67.068 23.465,66.971 23.254 C 66.875 23.043,66.617 22.788,66.398 22.689 C 66.179 22.589,66.000 22.393,66.000 22.254 C 66.000 22.114,65.927 22.000,65.838 22.000 C 65.638 22.000,64.167 20.546,64.167 20.348 C 64.167 20.270,64.011 20.165,63.821 20.115 C 63.631 20.065,63.434 19.868,63.384 19.677 C 63.293 19.330,62.762 19.094,62.299 19.196 C 62.163 19.226,61.672 18.856,61.208 18.375 C 60.495 17.637,60.269 17.500,59.761 17.500 C 59.282 17.500,59.121 17.416,58.971 17.087 C 58.868 16.859,58.656 16.633,58.500 16.583 C 58.344 16.534,58.129 16.300,58.021 16.062 C 57.852 15.693,57.740 15.641,57.234 15.700 C 56.737 15.758,56.591 15.695,56.310 15.301 C 56.004 14.871,55.890 14.833,54.901 14.833 C 53.907 14.833,53.813 14.802,53.667 14.417 C 53.520 14.032,53.427 14.000,52.432 14.000 C 51.427 14.000,51.333 13.967,51.000 13.500 L 50.644 13.000 43.914 13.000 L 37.185 13.000 36.965 13.458 M343.458 27.333 C 343.826 27.746,343.750 34.935,343.375 35.153 C 343.215 35.247,343.162 35.325,343.258 35.328 C 343.771 35.343,343.833 34.903,343.833 31.237 C 343.833 27.912,343.804 27.519,343.542 27.320 C 343.294 27.132,343.281 27.134,343.458 27.333 M126.917 32.083 C 126.917 36.223,126.949 36.835,127.167 36.794 C 127.544 36.721,127.544 27.446,127.167 27.373 C 126.949 27.331,126.917 27.943,126.917 32.083 M114.413 52.333 C 114.413 60.629,114.433 64.023,114.458 59.875 C 114.483 55.727,114.483 48.940,114.458 44.792 C 114.433 40.644,114.413 44.038,114.413 52.333 M376.763 38.875 C 376.947 39.381,377.051 45.196,376.879 45.319 C 376.725 45.429,376.167 46.279,376.167 46.403 C 376.167 46.447,376.429 46.213,376.750 45.883 L 377.333 45.282 377.333 42.153 C 377.333 39.531,377.291 38.981,377.071 38.762 C 376.707 38.397,376.604 38.435,376.763 38.875 M139.167 38.862 C 139.167 38.969,139.281 39.184,139.421 39.339 C 139.561 39.493,139.747 39.949,139.833 40.352 C 139.988 41.074,139.989 41.072,139.902 40.180 C 139.793 39.061,139.167 37.939,139.167 38.862 M305.879 39.333 C 305.879 39.746,305.911 39.915,305.951 39.708 C 305.991 39.502,305.991 39.165,305.951 38.958 C 305.911 38.752,305.879 38.921,305.879 39.333 M343.627 53.058 C 343.668 66.423,343.651 67.431,343.387 67.625 C 343.231 67.740,343.177 67.833,343.268 67.833 C 343.824 67.833,343.833 67.582,343.833 53.143 C 343.833 45.284,343.777 38.818,343.708 38.776 C 343.640 38.733,343.603 45.160,343.627 53.058 M279.833 39.083 C 279.947 39.221,280.116 39.333,280.207 39.333 C 280.300 39.333,280.282 39.223,280.167 39.083 C 280.053 38.946,279.884 38.833,279.793 38.833 C 279.700 38.833,279.718 38.944,279.833 39.083 M181.166 39.292 C 181.165 39.452,181.015 39.808,180.833 40.083 C 180.482 40.614,180.394 41.167,180.661 41.167 C 180.749 41.167,180.890 41.035,180.973 40.875 C 181.158 40.519,181.390 39.000,181.260 39.000 C 181.209 39.000,181.166 39.131,181.166 39.292 M160.248 39.833 C 160.314 40.154,160.516 40.642,160.697 40.917 L 161.027 41.417 160.940 40.789 C 160.893 40.444,160.690 39.956,160.491 39.706 L 160.128 39.250 160.248 39.833 M211.320 39.732 C 211.450 39.889,211.712 40.101,211.903 40.203 C 212.219 40.371,212.229 40.362,212.014 40.102 C 211.884 39.944,211.621 39.732,211.430 39.630 C 211.115 39.462,211.105 39.471,211.320 39.732 M231.333 39.550 C 231.333 39.938,231.739 41.479,231.914 41.757 C 232.032 41.944,232.169 42.244,232.217 42.424 C 232.266 42.603,232.262 42.337,232.209 41.833 C 232.136 41.137,231.333 39.045,231.333 39.550 M252.971 39.895 C 252.817 40.106,252.639 40.573,252.574 40.931 L 252.456 41.583 252.798 41.158 C 253.087 40.797,253.493 39.489,253.310 39.505 C 253.277 39.508,253.124 39.683,252.971 39.895 M212.814 41.042 C 213.109 41.477,213.413 41.833,213.492 41.833 C 213.570 41.833,213.714 42.062,213.811 42.341 C 213.908 42.620,214.151 43.052,214.351 43.299 L 214.713 43.750 214.593 43.250 C 214.527 42.975,214.329 42.616,214.153 42.452 C 213.977 42.288,213.833 42.089,213.833 42.011 C 213.833 41.933,213.484 41.504,213.056 41.059 L 212.280 40.250 212.814 41.042 M140.083 41.911 C 140.146 42.366,140.303 42.889,140.432 43.073 C 140.561 43.257,140.673 43.560,140.680 43.745 C 140.687 43.931,140.729 43.994,140.774 43.886 C 140.906 43.560,140.529 41.846,140.238 41.451 C 139.979 41.099,139.973 41.119,140.083 41.911 M180.049 42.051 C 179.852 42.435,179.648 43.012,179.597 43.333 C 179.546 43.654,179.550 43.804,179.607 43.667 C 179.664 43.529,179.809 43.303,179.929 43.164 C 180.121 42.943,180.543 41.487,180.444 41.388 C 180.423 41.368,180.245 41.666,180.049 42.051 M284.000 41.406 C 284.000 41.452,284.431 41.936,284.958 42.482 C 286.157 43.723,286.631 44.347,286.851 44.978 C 286.946 45.251,287.131 45.514,287.262 45.565 C 287.614 45.700,287.551 45.363,287.125 44.827 C 286.919 44.568,286.563 44.080,286.333 43.742 C 285.514 42.534,284.000 41.018,284.000 41.406 M323.714 42.001 C 324.061 42.413,324.495 43.050,324.678 43.417 C 325.361 44.782,325.536 45.003,325.405 44.333 C 325.342 44.012,325.118 43.544,324.907 43.293 C 324.696 43.041,324.475 42.703,324.417 42.543 C 324.358 42.382,324.034 42.025,323.697 41.751 L 323.083 41.251 323.714 42.001 M13.370 42.259 C 13.001 42.518,13.000 42.528,13.000 47.915 L 13.000 53.311 13.500 53.667 C 13.992 54.017,14.000 54.047,14.000 55.515 C 14.000 56.954,14.015 57.014,14.417 57.167 C 14.802 57.313,14.833 57.407,14.833 58.401 C 14.833 59.390,14.871 59.504,15.301 59.810 C 15.692 60.089,15.758 60.239,15.702 60.722 C 15.643 61.223,15.697 61.330,16.109 61.528 C 16.460 61.697,16.590 61.885,16.610 62.253 C 16.624 62.526,16.643 62.846,16.651 62.962 C 16.660 63.079,16.854 63.246,17.083 63.333 C 17.442 63.470,17.500 63.596,17.500 64.235 C 17.500 64.838,17.564 64.998,17.843 65.087 C 18.032 65.147,18.269 65.377,18.370 65.598 C 18.471 65.819,18.616 66.000,18.693 66.000 C 19.037 66.000,20.191 67.337,20.161 67.701 C 20.108 68.344,20.152 68.440,20.583 68.636 C 20.813 68.741,21.000 68.942,21.000 69.083 C 21.000 69.225,21.188 69.426,21.417 69.530 C 21.646 69.635,21.833 69.772,21.833 69.835 C 21.833 70.008,22.964 71.136,23.338 71.336 C 23.519 71.433,23.667 71.623,23.667 71.760 C 23.667 71.897,23.854 72.080,24.083 72.167 C 24.313 72.254,24.500 72.397,24.500 72.484 C 24.500 72.842,25.053 73.189,25.461 73.087 C 25.808 73.000,26.012 73.132,26.735 73.908 C 27.401 74.623,27.707 74.833,28.083 74.833 C 28.460 74.833,28.767 75.044,29.439 75.766 C 30.228 76.614,30.353 76.689,30.820 76.586 C 31.273 76.487,31.368 76.534,31.625 76.986 C 31.901 77.471,31.971 77.498,32.954 77.499 C 33.872 77.500,34.023 77.547,34.261 77.909 C 34.494 78.266,34.672 78.325,35.639 78.368 C 36.614 78.411,36.770 78.464,36.917 78.799 C 37.124 79.274,37.499 79.361,38.667 79.205 L 39.583 79.083 39.626 60.750 C 39.666 43.662,39.650 42.403,39.386 42.208 C 38.913 41.860,13.870 41.910,13.370 42.259 M46.781 42.208 C 46.517 42.403,46.500 43.662,46.540 60.750 L 46.583 79.083 48.583 79.192 L 50.583 79.300 51.000 78.815 C 51.376 78.378,51.517 78.330,52.432 78.332 C 53.353 78.333,53.464 78.295,53.636 77.917 C 53.810 77.535,53.916 77.500,54.902 77.500 C 55.911 77.500,56.000 77.469,56.340 76.991 C 56.641 76.568,56.781 76.499,57.164 76.583 C 57.610 76.681,58.167 76.357,58.167 75.999 C 58.167 75.920,58.305 75.812,58.475 75.758 C 58.644 75.704,58.868 75.474,58.971 75.247 C 59.127 74.906,59.278 74.833,59.834 74.833 C 60.400 74.833,60.534 74.766,60.667 74.417 C 60.804 74.056,60.928 74.000,61.584 74.000 C 62.156 74.000,62.370 73.928,62.450 73.708 C 62.576 73.363,64.791 71.167,65.013 71.167 C 65.098 71.167,65.167 71.053,65.167 70.913 C 65.167 70.774,65.348 70.577,65.569 70.476 C 65.791 70.375,66.010 70.146,66.057 69.967 C 66.104 69.788,66.295 69.602,66.482 69.553 C 66.669 69.504,66.865 69.329,66.918 69.164 C 66.970 68.998,67.198 68.742,67.423 68.594 C 67.746 68.383,67.833 68.183,67.833 67.658 C 67.833 67.194,67.916 66.958,68.105 66.885 C 68.870 66.592,70.500 64.690,70.500 64.091 C 70.500 63.615,70.585 63.454,70.917 63.303 C 71.254 63.149,71.333 62.993,71.333 62.485 C 71.333 61.978,71.429 61.788,71.828 61.504 C 72.234 61.215,72.305 61.068,72.228 60.682 C 72.150 60.291,72.223 60.149,72.669 59.832 C 73.193 59.458,73.202 59.431,73.096 58.491 C 72.990 57.561,73.002 57.521,73.494 57.171 C 73.993 56.816,74.000 56.790,74.000 55.318 C 74.000 53.888,74.017 53.818,74.417 53.636 L 74.833 53.446 74.833 47.896 C 74.833 42.579,74.820 42.338,74.511 42.173 C 74.004 41.901,47.151 41.936,46.781 42.208 M252.333 42.167 C 252.333 42.290,252.222 42.514,252.085 42.664 C 251.949 42.815,251.788 43.196,251.728 43.511 L 251.620 44.083 251.973 43.687 C 252.330 43.286,252.627 42.238,252.437 42.048 C 252.380 41.991,252.333 42.045,252.333 42.167 M161.167 42.546 C 161.167 42.755,161.287 43.098,161.434 43.308 C 161.581 43.518,161.767 43.891,161.847 44.136 C 161.954 44.465,161.967 44.384,161.893 43.833 C 161.743 42.703,161.167 41.681,161.167 42.546 M232.418 43.583 C 232.479 43.950,232.627 44.362,232.747 44.500 C 232.867 44.637,233.007 44.900,233.057 45.083 C 233.108 45.267,233.108 45.079,233.058 44.667 C 233.008 44.254,232.819 43.692,232.638 43.417 L 232.309 42.917 232.418 43.583 M214.770 44.338 C 214.831 44.656,214.954 45.011,215.045 45.126 C 215.135 45.241,215.267 45.579,215.338 45.876 C 215.460 46.392,215.467 46.382,215.483 45.657 C 215.496 45.090,215.394 44.755,215.080 44.329 L 214.660 43.760 214.770 44.338 M179.333 44.334 C 179.333 44.457,179.227 44.675,179.096 44.820 C 178.663 45.302,178.541 46.150,178.959 45.781 C 179.291 45.486,179.616 44.394,179.427 44.205 C 179.376 44.153,179.333 44.211,179.333 44.334 M251.106 45.016 C 250.935 45.335,250.826 45.743,250.864 45.923 C 250.961 46.379,251.541 45.289,251.468 44.790 C 251.424 44.484,251.375 44.514,251.106 45.016 M140.939 45.436 C 140.997 45.884,141.138 46.362,141.251 46.500 C 141.364 46.637,141.503 46.862,141.559 47.000 C 141.616 47.137,141.616 46.837,141.560 46.333 C 141.504 45.828,141.318 45.238,141.146 45.019 L 140.834 44.622 140.939 45.436 M162.008 45.000 C 162.009 45.229,162.200 45.792,162.432 46.250 L 162.854 47.083 162.744 46.333 C 162.607 45.407,162.004 44.313,162.008 45.000 M325.500 45.373 C 325.500 45.494,325.607 45.745,325.737 45.931 C 325.867 46.117,326.054 46.527,326.152 46.843 C 326.326 47.403,326.329 47.397,326.268 46.614 C 326.210 45.876,325.500 44.728,325.500 45.373 M233.169 45.801 C 233.168 46.012,233.309 46.500,233.482 46.884 C 233.656 47.269,233.840 47.733,233.892 47.917 C 233.944 48.100,233.964 47.863,233.936 47.390 C 233.882 46.472,233.175 45.007,233.169 45.801 M178.500 46.404 C 178.500 46.566,178.350 46.888,178.167 47.121 C 177.983 47.354,177.836 47.741,177.839 47.981 L 177.844 48.417 178.149 48.051 C 178.449 47.692,178.762 46.374,178.589 46.200 C 178.540 46.151,178.500 46.243,178.500 46.404 M287.762 46.750 C 287.826 47.025,287.971 47.362,288.084 47.500 C 288.197 47.637,288.337 47.862,288.395 48.000 C 288.453 48.137,288.458 47.950,288.405 47.583 C 288.353 47.217,288.160 46.767,287.978 46.583 C 287.646 46.250,287.646 46.250,287.762 46.750 M215.539 47.333 C 215.539 47.654,215.573 47.785,215.615 47.625 C 215.657 47.465,215.657 47.202,215.615 47.042 C 215.573 46.881,215.539 47.012,215.539 47.333 M268.493 47.179 C 268.324 47.496,268.338 47.509,268.654 47.340 C 268.844 47.238,269.000 47.083,269.000 46.994 C 269.000 46.708,268.684 46.824,268.493 47.179 M250.278 47.303 C 250.127 47.469,249.961 47.863,249.907 48.178 L 249.811 48.750 250.238 48.083 C 250.814 47.184,250.840 46.682,250.278 47.303 M307.375 47.466 C 307.169 47.697,307.000 47.955,307.000 48.039 C 307.000 48.123,307.197 47.958,307.437 47.672 C 307.963 47.048,307.909 46.868,307.375 47.466 M162.908 47.908 C 162.974 48.270,163.181 48.757,163.369 48.991 L 163.711 49.417 163.592 48.759 C 163.526 48.397,163.319 47.910,163.131 47.676 L 162.789 47.250 162.908 47.908 M195.505 47.744 C 195.393 47.879,195.340 48.085,195.388 48.203 C 195.443 48.341,195.478 48.316,195.487 48.133 C 195.494 47.977,195.631 47.773,195.792 47.680 C 195.952 47.587,195.999 47.508,195.895 47.505 C 195.792 47.502,195.616 47.610,195.505 47.744 M326.440 48.667 C 326.498 49.354,326.611 50.090,326.690 50.303 C 326.878 50.808,326.876 54.700,326.687 55.197 C 326.607 55.410,326.498 56.221,326.446 57.000 C 326.392 57.796,326.406 58.161,326.478 57.833 C 326.548 57.512,326.710 57.063,326.838 56.833 C 327.406 55.818,327.237 49.706,326.596 48.083 L 326.333 47.417 326.440 48.667 M141.782 48.583 C 141.834 49.152,142.014 49.799,142.199 50.083 L 142.523 50.583 142.413 49.750 C 142.352 49.292,142.229 48.828,142.140 48.719 C 142.050 48.610,141.912 48.310,141.833 48.052 C 141.734 47.729,141.718 47.894,141.782 48.583 M267.833 48.000 C 267.401 48.433,267.388 48.738,267.813 48.511 C 267.984 48.419,268.165 48.192,268.214 48.005 C 268.324 47.581,268.253 47.580,267.833 48.000 M306.542 48.886 C 306.075 49.572,306.042 49.962,306.486 49.548 C 306.761 49.292,307.149 48.331,306.976 48.334 C 306.944 48.335,306.748 48.583,306.542 48.886 M234.103 49.080 C 234.247 49.910,234.832 50.956,234.833 50.386 C 234.833 50.003,234.650 49.526,234.237 48.833 C 233.995 48.428,233.991 48.435,234.103 49.080 M288.605 49.500 C 288.654 50.096,288.763 50.801,288.847 51.067 C 289.045 51.692,289.045 54.807,288.847 55.433 C 288.681 55.960,288.465 57.741,288.617 57.333 C 288.668 57.196,288.832 56.944,288.980 56.774 C 289.448 56.239,289.372 50.361,288.883 49.250 L 288.516 48.417 288.605 49.500 M267.039 49.631 C 266.831 50.063,266.666 50.642,266.671 50.917 L 266.681 51.417 266.984 50.833 C 267.238 50.345,267.602 48.819,267.460 48.840 C 267.436 48.843,267.247 49.200,267.039 49.631 M249.480 49.560 C 249.018 50.179,248.869 51.163,249.296 50.781 C 249.586 50.521,249.957 49.397,249.802 49.249 C 249.774 49.222,249.629 49.362,249.480 49.560 M177.270 49.845 C 177.104 50.126,177.003 50.392,177.047 50.436 C 177.192 50.581,177.667 49.982,177.667 49.655 C 177.667 49.225,177.624 49.246,177.270 49.845 M371.833 50.521 C 368.596 53.513,366.292 55.968,367.154 55.507 C 367.344 55.405,367.500 55.210,367.500 55.074 C 367.500 54.938,367.686 54.741,367.913 54.638 C 368.141 54.534,368.370 54.315,368.422 54.150 C 368.474 53.985,368.663 53.804,368.842 53.747 C 369.021 53.691,369.167 53.575,369.167 53.491 C 369.167 53.349,369.714 52.792,371.286 51.333 C 371.937 50.730,372.912 49.664,372.809 49.670 C 372.777 49.672,372.337 50.055,371.833 50.521 M163.771 50.417 C 163.832 50.783,164.021 51.262,164.191 51.481 L 164.500 51.878 164.499 51.481 C 164.499 51.262,164.310 50.783,164.079 50.417 L 163.660 49.750 163.771 50.417 M248.539 51.836 C 248.103 52.593,248.020 53.330,248.406 53.009 C 248.601 52.847,249.057 51.334,248.944 51.222 C 248.926 51.204,248.744 51.480,248.539 51.836 M176.465 51.875 C 176.313 52.173,176.147 52.679,176.096 53.000 C 176.045 53.321,176.050 53.471,176.107 53.333 C 176.164 53.196,176.307 52.971,176.424 52.833 C 176.624 52.600,176.947 51.333,176.806 51.333 C 176.771 51.333,176.618 51.577,176.465 51.875 M235.001 51.855 C 235.002 52.072,235.151 52.475,235.333 52.750 C 235.515 53.025,235.674 53.475,235.685 53.750 C 235.696 54.030,235.739 54.122,235.781 53.959 C 235.897 53.517,235.514 51.885,235.241 51.659 C 235.042 51.494,235.000 51.529,235.001 51.855 M142.673 52.256 C 142.670 52.535,142.818 53.172,143.003 53.673 L 143.339 54.583 143.232 53.583 C 143.173 53.033,143.025 52.396,142.902 52.167 L 142.680 51.750 142.673 52.256 M154.275 52.126 C 154.232 52.196,154.147 52.552,154.085 52.918 C 153.978 53.556,153.983 53.566,154.207 53.162 C 154.619 52.422,154.681 51.469,154.275 52.126 M164.597 52.667 C 164.705 53.445,165.295 54.940,165.319 54.499 C 165.335 54.216,165.144 53.568,164.755 52.583 L 164.492 51.917 164.597 52.667 M153.833 54.029 C 153.833 54.136,153.727 54.342,153.597 54.487 C 153.468 54.632,153.312 55.050,153.252 55.417 L 153.142 56.083 153.475 55.583 C 153.803 55.090,154.133 53.833,153.935 53.833 C 153.879 53.833,153.833 53.921,153.833 54.029 M175.538 54.395 C 175.104 55.029,175.016 55.666,175.408 55.340 C 175.650 55.140,176.088 54.032,175.971 53.916 C 175.937 53.882,175.742 54.097,175.538 54.395 M247.599 54.629 C 247.424 55.018,247.324 55.380,247.377 55.433 C 247.549 55.605,248.027 54.696,247.971 54.303 C 247.925 53.978,247.869 54.027,247.599 54.629 M235.904 54.873 C 235.990 55.591,236.503 56.494,236.496 55.912 C 236.493 55.731,236.342 55.283,236.161 54.917 L 235.830 54.250 235.904 54.873 M266.670 55.510 C 266.668 55.836,266.778 56.249,266.914 56.426 C 267.050 56.604,267.238 57.021,267.331 57.353 C 267.424 57.684,267.721 58.232,267.990 58.570 C 268.258 58.909,268.506 59.267,268.539 59.368 C 268.573 59.468,268.696 59.518,268.812 59.479 C 268.962 59.429,268.910 59.276,268.637 58.959 C 267.778 57.961,267.521 57.534,267.404 56.908 C 267.337 56.548,267.145 55.953,266.978 55.585 L 266.674 54.917 266.670 55.510 M306.039 55.500 C 306.039 55.821,306.073 55.952,306.115 55.792 C 306.157 55.631,306.157 55.369,306.115 55.208 C 306.073 55.048,306.039 55.179,306.039 55.500 M174.721 56.646 C 174.521 57.070,174.310 57.642,174.252 57.917 L 174.145 58.417 174.552 57.871 C 174.891 57.416,175.294 56.054,175.131 55.915 C 175.105 55.893,174.920 56.222,174.721 56.646 M306.225 56.639 C 306.283 56.944,306.490 57.394,306.685 57.639 L 307.039 58.083 306.914 57.500 C 306.846 57.179,306.639 56.729,306.455 56.500 L 306.119 56.083 306.225 56.639 M152.708 57.163 C 152.238 58.194,152.200 58.807,152.650 58.083 C 152.914 57.658,153.282 56.326,153.133 56.337 C 153.105 56.339,152.915 56.710,152.708 57.163 M246.794 56.708 C 246.660 56.915,246.500 57.383,246.438 57.750 L 246.326 58.417 246.746 57.750 C 247.101 57.184,247.316 56.333,247.103 56.333 C 247.067 56.333,246.929 56.502,246.794 56.708 M194.923 57.392 C 194.391 57.781,194.345 59.449,194.862 59.646 C 195.083 59.730,195.364 59.919,195.486 60.066 C 195.608 60.213,195.792 60.333,195.895 60.331 C 195.999 60.330,195.850 60.145,195.564 59.920 C 194.733 59.265,194.570 58.676,194.991 57.852 C 195.376 57.097,195.371 57.064,194.923 57.392 M364.401 57.858 C 364.085 58.213,364.085 58.214,364.458 58.018 C 364.665 57.910,364.833 57.749,364.833 57.661 C 364.833 57.424,364.754 57.460,364.401 57.858 M288.284 58.083 C 288.215 58.267,288.043 58.625,287.901 58.879 C 287.760 59.133,287.669 59.508,287.698 59.712 C 287.742 60.017,287.821 59.942,288.138 59.297 C 288.351 58.865,288.499 58.340,288.467 58.130 C 288.413 57.768,288.404 57.766,288.284 58.083 M307.000 58.319 C 307.000 58.438,307.188 58.758,307.417 59.030 C 307.646 59.303,307.833 59.459,307.833 59.379 C 307.833 59.298,307.646 58.977,307.417 58.667 C 307.188 58.356,307.000 58.199,307.000 58.319 M173.817 58.891 C 173.670 59.089,173.498 59.550,173.434 59.917 L 173.318 60.583 173.654 60.087 C 174.210 59.265,174.361 58.159,173.817 58.891 M245.953 59.033 C 245.790 59.204,245.613 59.585,245.560 59.880 C 245.445 60.519,245.842 60.103,246.169 59.244 C 246.383 58.680,246.335 58.633,245.953 59.033 M326.167 58.862 C 326.167 58.969,326.061 59.175,325.931 59.320 C 325.801 59.465,325.641 59.883,325.575 60.250 L 325.456 60.917 325.806 60.481 C 326.136 60.069,326.496 58.667,326.271 58.667 C 326.214 58.667,326.167 58.755,326.167 58.862 M151.769 60.024 C 151.595 60.347,151.489 60.716,151.531 60.844 C 151.651 61.202,152.203 60.261,152.138 59.811 C 152.089 59.473,152.053 59.494,151.769 60.024 M377.558 59.971 C 377.955 60.411,377.974 67.175,377.579 67.503 C 377.233 67.791,377.391 67.903,377.819 67.674 C 378.237 67.451,378.373 60.273,377.967 59.867 C 377.614 59.514,377.232 59.612,377.558 59.971 M245.046 61.465 C 244.710 62.176,244.319 63.595,244.622 63.000 C 244.693 62.862,244.873 62.563,245.023 62.333 C 245.257 61.977,245.609 60.654,245.466 60.673 C 245.439 60.677,245.250 61.033,245.046 61.465 M287.033 60.867 C 286.664 61.236,286.788 61.593,287.167 61.250 C 287.509 60.940,287.603 60.667,287.367 60.667 C 287.293 60.667,287.143 60.757,287.033 60.867 M173.167 61.001 C 173.167 61.123,173.064 61.342,172.939 61.487 C 172.522 61.970,172.404 62.805,172.804 62.443 C 173.128 62.150,173.445 61.057,173.261 60.872 C 173.209 60.820,173.167 60.878,173.167 61.001 M325.068 61.647 C 324.876 61.887,324.664 62.307,324.596 62.581 L 324.474 63.078 324.817 62.642 C 325.145 62.225,325.560 61.329,325.463 61.249 C 325.438 61.228,325.260 61.407,325.068 61.647 M286.250 62.306 C 285.752 62.891,285.752 62.892,286.194 62.604 C 286.580 62.352,286.932 61.853,286.796 61.752 C 286.771 61.734,286.525 61.983,286.250 62.306 M151.167 62.001 C 151.167 62.123,151.064 62.342,150.938 62.487 C 150.812 62.632,150.658 63.050,150.597 63.417 L 150.484 64.083 150.825 63.583 C 151.183 63.056,151.445 62.056,151.270 61.881 C 151.213 61.824,151.167 61.878,151.167 62.001 M215.737 64.066 C 215.790 64.751,215.928 65.328,216.079 65.496 C 216.219 65.650,216.333 65.877,216.333 65.999 C 216.333 66.122,216.368 66.187,216.411 66.145 C 216.552 66.004,216.135 63.758,215.890 63.333 C 215.667 62.949,215.656 63.005,215.737 64.066 M284.956 63.854 C 284.519 64.301,284.204 64.667,284.256 64.667 C 284.397 64.667,285.890 63.166,285.815 63.099 C 285.779 63.067,285.393 63.407,284.956 63.854 M172.138 63.573 C 171.984 63.778,171.810 64.239,171.751 64.598 L 171.642 65.250 171.977 64.835 C 172.272 64.469,172.609 63.383,172.469 63.249 C 172.440 63.222,172.291 63.367,172.138 63.573 M324.030 63.508 C 323.631 63.880,323.545 64.203,323.879 64.075 C 324.114 63.984,324.560 63.338,324.458 63.236 C 324.422 63.200,324.229 63.322,324.030 63.508 M244.146 63.727 C 243.997 63.927,243.824 64.426,243.762 64.837 C 243.652 65.556,243.657 65.568,243.900 65.167 C 244.549 64.095,244.750 62.917,244.146 63.727 M150.042 65.163 C 149.568 66.203,149.534 66.801,149.990 66.083 C 150.270 65.642,150.636 64.328,150.477 64.337 C 150.444 64.339,150.248 64.710,150.042 65.163 M323.095 64.595 C 322.727 64.964,322.759 65.218,323.147 65.010 C 323.487 64.829,323.750 64.333,323.507 64.333 C 323.424 64.333,323.239 64.451,323.095 64.595 M203.418 65.165 C 203.156 65.439,202.973 65.690,203.012 65.722 C 203.051 65.755,203.297 65.531,203.558 65.224 C 204.148 64.532,204.060 64.495,203.418 65.165 M322.333 65.583 C 322.216 65.725,322.157 65.879,322.202 65.925 C 322.248 65.971,322.382 65.892,322.500 65.750 C 322.618 65.608,322.677 65.454,322.631 65.409 C 322.585 65.363,322.451 65.441,322.333 65.583 M171.500 65.729 C 171.500 65.885,171.337 66.235,171.137 66.505 C 170.758 67.017,170.819 67.358,171.229 67.018 C 171.479 66.810,171.754 65.698,171.594 65.539 C 171.542 65.487,171.500 65.572,171.500 65.729 M243.316 66.214 C 243.169 66.417,242.996 66.771,242.931 67.000 L 242.815 67.417 243.241 66.949 C 243.475 66.692,243.667 66.336,243.667 66.157 C 243.667 65.754,243.646 65.757,243.316 66.214 M216.544 66.980 C 216.586 67.717,216.677 67.806,216.996 67.422 C 217.159 67.225,217.131 67.091,216.852 66.736 L 216.505 66.294 216.544 66.980 M242.661 67.847 C 242.658 67.977,242.510 68.383,242.333 68.750 C 241.922 69.602,241.879 70.145,242.253 69.771 C 242.507 69.517,242.907 67.851,242.751 67.695 C 242.705 67.649,242.664 67.717,242.661 67.847 M241.565 70.793 C 241.371 71.136,241.159 71.717,241.094 72.083 L 240.975 72.750 241.385 71.986 C 242.057 70.733,242.224 69.625,241.565 70.793 M240.629 73.125 C 240.488 73.285,240.322 73.604,240.260 73.833 L 240.148 74.250 240.574 73.782 C 240.808 73.525,241.000 73.206,241.000 73.074 C 241.000 72.762,240.940 72.771,240.629 73.125 M239.696 74.842 C 239.276 75.233,239.217 75.534,239.588 75.392 C 239.851 75.291,240.245 74.690,240.126 74.571 C 240.089 74.534,239.896 74.656,239.696 74.842 M238.893 76.042 C 238.134 76.900,237.932 77.449,238.649 76.708 C 239.025 76.318,239.333 75.924,239.333 75.833 C 239.333 75.590,239.263 75.624,238.893 76.042 " stroke="none" fill="#ffffff" fill-rule="evenodd"></path><path id="path1" d="M90.039 27.472 C 89.875 27.576,89.838 28.632,89.872 32.178 L 89.917 36.750 95.947 36.761 C 100.644 36.770,102.034 36.821,102.238 36.990 C 102.473 37.185,102.500 38.781,102.500 52.253 C 102.500 65.818,102.526 67.308,102.764 67.399 C 103.108 67.531,113.226 67.531,113.570 67.399 C 113.807 67.308,113.833 65.818,113.833 52.253 C 113.833 39.132,113.865 37.181,114.082 37.002 C 114.267 36.847,115.849 36.790,120.373 36.773 L 126.417 36.750 126.461 32.178 C 126.496 28.632,126.458 27.576,126.294 27.472 C 126.178 27.399,118.021 27.338,108.167 27.338 C 98.313 27.338,90.155 27.399,90.039 27.472 M295.625 27.513 C 295.350 27.674,295.333 28.803,295.333 47.505 L 295.333 67.327 295.708 67.419 C 295.915 67.469,297.958 67.489,300.250 67.464 L 304.417 67.417 304.465 66.065 C 304.544 63.837,305.365 63.427,306.852 64.872 C 307.704 65.700,308.940 66.667,309.146 66.667 C 309.224 66.667,309.482 66.819,309.720 67.006 C 309.957 67.193,310.688 67.486,311.345 67.659 C 312.001 67.831,312.620 68.053,312.719 68.153 C 313.055 68.488,316.091 68.378,316.825 68.004 C 317.179 67.824,317.795 67.625,318.193 67.563 C 318.591 67.501,319.129 67.274,319.388 67.058 C 319.647 66.843,319.954 66.667,320.071 66.667 C 320.187 66.667,320.455 66.517,320.667 66.333 C 320.878 66.150,321.096 65.999,321.151 65.999 C 321.251 65.998,322.068 65.201,322.993 64.203 C 323.272 63.902,323.500 63.557,323.500 63.437 C 323.500 63.317,323.646 63.086,323.824 62.925 C 324.002 62.764,324.193 62.424,324.249 62.170 C 324.305 61.916,324.534 61.459,324.759 61.155 C 324.983 60.851,325.170 60.410,325.174 60.176 C 325.178 59.942,325.296 59.450,325.436 59.083 C 326.318 56.780,326.503 48.961,325.708 47.615 C 325.502 47.266,325.333 46.809,325.333 46.599 C 325.333 46.110,325.015 45.157,324.743 44.833 C 324.628 44.696,324.461 44.321,324.372 44.000 C 324.213 43.426,323.139 42.109,322.004 41.099 C 321.686 40.815,321.234 40.388,321.001 40.148 C 320.768 39.909,320.391 39.655,320.163 39.584 C 319.936 39.512,319.582 39.323,319.377 39.163 C 319.172 39.003,318.659 38.820,318.237 38.757 C 317.815 38.693,317.132 38.497,316.721 38.321 C 315.668 37.870,313.490 37.876,312.456 38.333 C 312.041 38.516,311.244 38.729,310.683 38.806 C 310.010 38.898,309.533 39.068,309.279 39.306 C 309.068 39.504,308.771 39.667,308.620 39.667 C 308.468 39.667,308.061 39.934,307.714 40.261 C 307.367 40.587,306.956 40.972,306.800 41.115 C 306.499 41.390,306.000 41.309,306.000 40.985 C 306.000 40.842,305.939 40.844,305.762 40.990 C 305.235 41.428,305.167 40.642,305.167 34.100 C 305.167 27.922,305.154 27.672,304.844 27.506 C 304.414 27.275,296.022 27.282,295.625 27.513 M333.538 27.473 C 333.375 27.576,333.337 28.449,333.372 31.262 L 333.417 34.917 338.125 34.961 C 340.715 34.985,342.838 34.948,342.843 34.878 C 342.979 33.007,342.836 27.604,342.647 27.485 C 342.358 27.301,333.826 27.290,333.538 27.473 M196.667 38.166 C 195.549 38.535,193.930 38.833,193.047 38.833 C 192.261 38.833,191.952 38.917,191.500 39.250 C 191.189 39.479,190.813 39.667,190.663 39.667 C 190.513 39.667,189.853 40.079,189.196 40.583 C 188.539 41.087,187.936 41.500,187.855 41.500 C 187.775 41.500,187.456 41.921,187.146 42.436 C 186.837 42.951,186.387 43.607,186.148 43.894 C 185.841 44.263,185.689 44.676,185.630 45.299 C 185.572 45.919,185.439 46.282,185.181 46.522 C 184.907 46.778,184.828 47.017,184.866 47.473 L 184.917 48.083 187.667 48.197 C 190.030 48.296,191.249 48.446,193.708 48.945 C 194.176 49.040,194.815 48.524,194.828 48.042 C 194.839 47.632,195.999 46.555,196.949 46.074 C 197.908 45.588,197.943 45.583,200.764 45.583 L 203.612 45.583 204.290 46.289 C 205.873 47.935,205.244 50.008,203.062 50.331 C 202.524 50.411,201.786 50.632,201.423 50.822 C 200.923 51.083,200.454 51.167,199.487 51.167 C 198.417 51.167,198.135 51.227,197.735 51.542 C 197.328 51.861,196.996 51.929,195.479 52.000 C 194.086 52.065,193.629 52.148,193.372 52.381 C 193.148 52.584,192.507 52.749,191.374 52.896 C 190.146 53.055,189.585 53.207,189.247 53.473 C 188.995 53.671,188.663 53.833,188.510 53.833 C 188.357 53.833,187.977 54.021,187.667 54.250 C 187.356 54.479,187.020 54.667,186.921 54.667 C 186.582 54.667,184.855 56.579,184.739 57.083 C 184.675 57.358,184.479 57.742,184.303 57.936 C 184.048 58.218,183.964 58.640,183.885 60.036 L 183.786 61.783 184.401 63.061 C 185.115 64.546,185.949 65.833,186.196 65.833 C 186.291 65.833,186.591 66.021,186.864 66.250 C 187.136 66.479,187.452 66.667,187.566 66.667 C 187.680 66.667,187.936 66.854,188.136 67.083 C 188.387 67.373,188.668 67.500,189.056 67.500 C 189.364 67.500,190.058 67.663,190.599 67.863 C 191.939 68.357,195.576 68.494,196.441 68.083 C 196.754 67.935,197.605 67.718,198.334 67.603 C 199.063 67.487,199.792 67.272,199.955 67.125 C 200.117 66.979,200.458 66.807,200.713 66.744 C 200.967 66.680,201.246 66.497,201.331 66.337 C 201.417 66.177,201.696 65.954,201.952 65.843 C 202.208 65.731,202.865 65.119,203.413 64.483 C 203.962 63.847,204.503 63.363,204.616 63.406 C 204.730 63.450,204.867 63.414,204.921 63.326 C 205.287 62.734,205.999 63.419,206.001 64.364 C 206.002 64.668,206.125 65.142,206.276 65.417 C 206.427 65.692,206.641 66.254,206.752 66.667 L 206.953 67.417 211.582 67.461 L 216.211 67.505 216.111 66.891 C 216.057 66.553,215.945 66.233,215.864 66.180 C 215.283 65.799,215.253 65.376,215.199 56.583 C 215.149 48.583,215.120 47.835,214.822 46.857 C 214.645 46.275,214.500 45.487,214.500 45.107 C 214.500 44.616,214.382 44.280,214.093 43.944 C 213.870 43.684,213.638 43.250,213.579 42.978 C 213.448 42.382,210.800 39.667,210.349 39.667 C 210.183 39.667,209.770 39.479,209.433 39.250 C 209.019 38.970,208.589 38.833,208.118 38.832 C 207.732 38.832,206.967 38.754,206.417 38.659 C 203.776 38.205,202.870 38.122,200.083 38.077 C 198.433 38.050,196.896 38.090,196.667 38.166 M269.666 38.241 C 269.156 38.518,267.518 38.833,266.585 38.833 C 266.114 38.833,265.721 38.964,265.333 39.250 C 265.023 39.479,264.639 39.667,264.480 39.667 C 264.322 39.667,263.969 39.854,263.697 40.083 C 263.425 40.313,263.084 40.500,262.939 40.500 C 262.627 40.500,261.985 41.062,259.988 43.083 C 257.887 45.210,257.897 45.198,257.763 45.750 C 257.696 46.025,257.506 46.400,257.340 46.583 C 257.174 46.767,256.954 47.418,256.850 48.030 C 256.746 48.642,256.514 49.467,256.334 49.863 C 255.839 50.954,255.850 55.573,256.350 56.667 C 256.539 57.079,256.767 57.867,256.857 58.417 C 256.947 58.967,257.158 59.567,257.326 59.750 C 257.493 59.933,257.683 60.329,257.746 60.628 C 257.876 61.242,258.076 61.488,260.126 63.549 C 262.317 65.751,262.408 65.833,262.691 65.833 C 262.836 65.833,263.213 66.009,263.530 66.224 C 263.846 66.439,264.326 66.670,264.594 66.737 C 264.863 66.803,265.233 66.993,265.417 67.158 C 265.647 67.365,266.156 67.493,267.066 67.572 C 267.790 67.634,268.690 67.808,269.066 67.957 C 270.317 68.455,273.884 68.439,275.829 67.926 C 276.717 67.692,277.677 67.500,277.963 67.500 C 278.249 67.500,278.835 67.312,279.266 67.083 C 279.697 66.854,280.170 66.665,280.316 66.664 C 280.580 66.661,281.849 65.894,282.333 65.445 C 282.471 65.317,282.771 65.118,283.000 65.002 C 284.474 64.257,287.500 60.006,287.500 58.681 C 287.500 58.408,287.693 57.824,287.928 57.384 L 288.356 56.583 288.303 52.833 C 288.253 49.283,288.230 49.051,287.875 48.480 C 287.669 48.149,287.499 47.699,287.498 47.480 C 287.496 47.262,287.385 46.896,287.251 46.667 C 287.117 46.438,286.859 45.945,286.676 45.573 C 286.494 45.201,286.193 44.758,286.006 44.589 C 285.819 44.420,285.667 44.182,285.667 44.061 C 285.667 43.629,282.232 40.500,281.758 40.500 C 281.644 40.500,281.417 40.351,281.253 40.170 C 281.089 39.988,280.706 39.793,280.403 39.737 C 280.101 39.680,279.609 39.453,279.311 39.233 C 278.926 38.949,278.549 38.833,278.009 38.833 C 277.592 38.833,276.551 38.645,275.696 38.416 C 273.869 37.927,270.427 37.827,269.666 38.241 M129.442 38.946 C 129.250 39.139,129.525 40.232,129.859 40.599 C 130.046 40.805,130.219 41.318,130.281 41.849 C 130.355 42.488,130.499 42.857,130.776 43.117 C 131.012 43.338,131.167 43.676,131.167 43.967 C 131.167 44.233,131.350 44.795,131.574 45.217 C 131.798 45.638,132.035 46.268,132.100 46.617 C 132.166 46.965,132.350 47.438,132.509 47.667 C 132.669 47.896,132.844 48.447,132.899 48.892 C 132.962 49.402,133.152 49.883,133.416 50.196 C 133.645 50.469,133.833 50.893,133.833 51.139 C 133.833 51.385,134.021 51.938,134.250 52.369 C 134.479 52.799,134.667 53.365,134.667 53.627 C 134.667 53.888,134.846 54.345,135.065 54.642 C 135.305 54.967,135.508 55.537,135.575 56.074 C 135.644 56.624,135.807 57.075,136.000 57.250 C 136.172 57.406,136.395 57.916,136.495 58.385 C 136.596 58.853,136.790 59.360,136.927 59.512 C 137.064 59.663,137.246 60.213,137.330 60.732 C 137.415 61.252,137.638 61.873,137.825 62.111 C 138.029 62.369,138.167 62.793,138.167 63.157 C 138.167 63.548,138.317 63.973,138.583 64.333 C 138.813 64.644,139.000 65.052,139.001 65.241 C 139.001 65.429,139.249 65.996,139.553 66.500 L 140.104 67.417 144.252 67.461 L 148.399 67.506 148.775 67.045 C 148.981 66.791,149.233 66.171,149.333 65.667 C 149.434 65.162,149.654 64.487,149.823 64.167 C 149.992 63.846,150.210 63.208,150.308 62.750 C 150.405 62.292,150.639 61.620,150.826 61.256 C 151.013 60.893,151.167 60.403,151.167 60.167 C 151.167 59.930,151.320 59.440,151.507 59.077 C 151.695 58.714,151.927 58.042,152.024 57.583 C 152.121 57.125,152.308 56.580,152.440 56.371 C 152.572 56.163,152.757 55.563,152.852 55.038 C 152.948 54.513,153.133 53.917,153.264 53.713 C 153.395 53.509,153.608 52.886,153.738 52.328 C 153.966 51.350,154.286 50.731,154.469 50.913 C 154.517 50.961,154.683 50.886,154.837 50.746 C 155.227 50.394,155.575 50.577,155.897 51.301 C 156.048 51.640,156.281 52.104,156.416 52.333 C 156.551 52.563,156.663 53.059,156.664 53.436 C 156.666 53.888,156.792 54.281,157.034 54.589 C 157.267 54.885,157.444 55.416,157.517 56.042 C 157.594 56.692,157.744 57.131,157.959 57.330 C 158.172 57.529,158.323 57.967,158.398 58.604 C 158.469 59.212,158.633 59.703,158.837 59.920 C 159.040 60.136,159.216 60.662,159.306 61.316 C 159.385 61.893,159.524 62.415,159.616 62.474 C 159.932 62.680,160.167 63.312,160.167 63.957 C 160.167 64.383,160.308 64.793,160.583 65.167 C 160.813 65.477,161.000 65.895,161.000 66.095 C 161.000 66.295,161.047 66.694,161.105 66.982 L 161.209 67.505 165.730 67.461 L 170.250 67.417 170.523 66.564 C 170.673 66.095,170.908 65.533,171.045 65.314 C 171.182 65.096,171.341 64.601,171.398 64.216 C 171.455 63.830,171.689 63.163,171.917 62.732 C 172.146 62.302,172.333 61.809,172.333 61.635 C 172.333 61.462,172.481 61.030,172.662 60.675 C 172.843 60.321,173.040 59.726,173.100 59.353 C 173.159 58.980,173.386 58.434,173.604 58.139 C 173.822 57.843,174.000 57.403,174.000 57.159 C 174.000 56.916,174.188 56.364,174.417 55.933 C 174.646 55.502,174.833 55.014,174.833 54.849 C 174.833 54.685,175.012 54.213,175.231 53.802 C 175.449 53.391,175.681 52.724,175.747 52.319 C 175.812 51.914,175.977 51.407,176.114 51.192 C 176.251 50.977,176.502 50.395,176.673 49.899 C 176.843 49.403,177.099 48.831,177.241 48.628 C 177.384 48.425,177.500 47.987,177.500 47.654 C 177.500 47.322,177.679 46.713,177.897 46.302 C 178.116 45.891,178.349 45.299,178.415 44.986 C 178.482 44.673,178.670 44.192,178.834 43.917 C 178.997 43.642,179.185 43.079,179.250 42.667 C 179.315 42.254,179.516 41.756,179.696 41.560 C 180.051 41.174,180.548 39.168,180.343 38.950 C 180.274 38.877,178.212 38.840,175.762 38.867 C 170.647 38.924,170.953 38.822,170.759 40.537 C 170.695 41.104,170.460 42.000,170.238 42.529 C 170.015 43.057,169.833 43.798,169.833 44.175 C 169.833 44.552,169.654 45.323,169.434 45.888 C 169.215 46.454,168.994 47.302,168.944 47.773 C 168.894 48.244,168.661 49.085,168.427 49.643 C 168.192 50.200,167.997 50.978,167.993 51.370 C 167.989 51.762,167.869 52.383,167.727 52.750 C 167.585 53.117,167.402 53.899,167.320 54.489 C 167.061 56.363,166.924 56.620,166.204 56.581 C 165.508 56.544,164.334 54.662,164.333 53.582 C 164.333 53.306,164.146 52.728,163.917 52.298 C 163.688 51.867,163.500 51.305,163.500 51.048 C 163.500 50.791,163.311 50.226,163.080 49.793 C 162.850 49.359,162.612 48.649,162.553 48.215 C 162.493 47.780,162.314 47.198,162.155 46.921 C 161.996 46.643,161.787 46.042,161.690 45.583 C 161.594 45.125,161.361 44.453,161.174 44.090 C 160.987 43.727,160.833 43.239,160.833 43.005 C 160.833 42.772,160.646 42.228,160.417 41.798 C 160.188 41.367,160.000 40.836,160.000 40.616 C 160.000 38.920,159.749 38.833,154.831 38.833 L 150.641 38.833 150.154 39.321 C 149.735 39.739,149.667 39.935,149.667 40.712 C 149.667 41.346,149.547 41.841,149.269 42.364 C 149.051 42.775,148.817 43.443,148.749 43.848 C 148.682 44.252,148.448 44.920,148.230 45.332 C 148.012 45.744,147.833 46.307,147.833 46.584 C 147.833 46.862,147.678 47.379,147.488 47.733 C 147.297 48.088,147.075 48.791,146.993 49.296 C 146.910 49.800,146.728 50.340,146.588 50.495 C 146.447 50.650,146.251 51.221,146.152 51.764 C 146.052 52.306,145.859 52.875,145.721 53.029 C 145.584 53.182,145.404 53.848,145.321 54.509 C 145.154 55.839,145.068 55.995,144.227 56.491 L 143.648 56.833 143.079 55.585 C 142.705 54.764,142.471 53.950,142.398 53.210 C 142.337 52.590,142.146 51.803,141.975 51.460 C 141.803 51.118,141.616 50.368,141.559 49.794 C 141.502 49.220,141.314 48.431,141.140 48.040 C 140.966 47.650,140.758 46.825,140.677 46.207 C 140.597 45.589,140.379 44.746,140.194 44.333 C 140.008 43.921,139.781 43.096,139.689 42.500 C 139.597 41.904,139.358 40.929,139.159 40.333 C 138.960 39.737,138.770 39.156,138.737 39.042 C 138.672 38.815,129.666 38.723,129.442 38.946 M220.082 39.001 C 219.947 39.221,220.140 39.841,220.457 40.202 C 220.595 40.359,220.774 40.843,220.855 41.276 C 220.936 41.709,221.142 42.218,221.312 42.407 C 221.483 42.596,221.676 42.975,221.740 43.250 C 221.805 43.525,221.993 43.900,222.157 44.083 C 222.321 44.267,222.501 44.714,222.557 45.078 C 222.612 45.441,222.804 45.937,222.984 46.180 C 223.163 46.423,223.361 46.913,223.423 47.269 C 223.485 47.625,223.707 48.179,223.917 48.500 C 224.126 48.821,224.345 49.357,224.403 49.691 C 224.461 50.026,224.651 50.480,224.824 50.700 C 224.997 50.921,225.194 51.397,225.260 51.759 C 225.327 52.121,225.558 52.629,225.774 52.888 C 225.990 53.147,226.167 53.567,226.167 53.820 C 226.167 54.074,226.315 54.416,226.497 54.580 C 226.678 54.745,226.876 55.150,226.936 55.481 C 226.996 55.812,227.222 56.390,227.439 56.765 C 227.656 57.139,227.833 57.684,227.833 57.974 C 227.833 58.323,227.968 58.620,228.231 58.848 C 228.458 59.045,228.671 59.462,228.728 59.818 C 228.783 60.162,228.971 60.608,229.145 60.809 C 229.320 61.010,229.551 61.529,229.660 61.962 C 229.769 62.395,229.974 62.879,230.116 63.036 C 230.258 63.193,230.440 63.675,230.521 64.106 C 230.601 64.538,230.785 65.021,230.929 65.180 C 231.072 65.339,231.290 65.794,231.413 66.193 C 231.536 66.591,231.753 67.189,231.896 67.521 C 232.138 68.088,232.134 68.144,231.837 68.414 C 231.662 68.572,231.468 68.935,231.405 69.220 C 231.298 69.707,230.420 71.010,230.109 71.144 C 230.031 71.178,229.700 71.440,229.372 71.728 L 228.776 72.250 225.263 72.250 L 221.750 72.250 221.701 73.179 C 221.546 76.117,222.164 78.868,223.001 78.965 C 223.229 78.992,224.204 79.178,225.167 79.379 C 227.487 79.864,230.780 79.889,232.250 79.432 C 232.800 79.262,233.604 79.071,234.036 79.008 C 234.469 78.946,234.957 78.774,235.120 78.627 C 235.283 78.480,235.607 78.312,235.840 78.254 C 236.833 78.006,239.418 74.931,239.974 73.337 C 240.082 73.026,240.282 72.649,240.417 72.499 C 240.553 72.349,240.739 71.832,240.830 71.350 C 240.922 70.868,241.138 70.293,241.312 70.072 C 241.486 69.851,241.680 69.325,241.744 68.902 C 241.807 68.479,242.003 67.897,242.179 67.608 C 242.355 67.319,242.499 66.971,242.500 66.833 C 242.501 66.696,242.726 66.133,243.000 65.583 C 243.274 65.033,243.499 64.374,243.499 64.117 C 243.500 63.861,243.688 63.299,243.917 62.869 C 244.146 62.438,244.334 61.973,244.335 61.835 C 244.336 61.696,244.521 61.208,244.746 60.750 C 244.972 60.292,245.159 59.758,245.161 59.565 C 245.164 59.371,245.350 58.943,245.574 58.614 C 245.797 58.284,246.060 57.586,246.156 57.062 C 246.253 56.539,246.439 55.992,246.570 55.847 C 246.701 55.702,246.901 55.208,247.015 54.750 C 247.128 54.292,247.314 53.767,247.427 53.583 C 247.541 53.400,247.719 52.839,247.823 52.337 C 247.927 51.835,248.151 51.273,248.319 51.087 C 248.488 50.902,248.679 50.453,248.744 50.089 C 248.809 49.726,248.975 49.210,249.113 48.943 C 249.251 48.676,249.477 48.073,249.615 47.604 C 249.753 47.134,249.963 46.637,250.082 46.500 C 250.201 46.362,250.385 45.827,250.491 45.310 C 250.596 44.793,250.821 44.245,250.991 44.092 C 251.160 43.939,251.350 43.461,251.414 43.032 C 251.477 42.602,251.673 42.016,251.848 41.730 C 252.024 41.444,252.243 40.810,252.335 40.322 C 252.428 39.834,252.596 39.377,252.709 39.307 C 253.343 38.915,252.365 38.830,247.740 38.872 L 242.918 38.917 242.797 39.884 C 242.727 40.449,242.536 41.031,242.338 41.282 C 242.097 41.589,242.000 41.960,242.000 42.581 C 242.000 43.180,241.875 43.686,241.598 44.207 C 241.376 44.623,241.142 45.386,241.078 45.901 C 241.009 46.457,240.817 47.021,240.607 47.288 C 240.351 47.613,240.225 48.075,240.154 48.951 C 240.088 49.753,239.957 50.271,239.767 50.481 C 239.545 50.726,239.197 52.203,239.170 53.016 C 239.168 53.071,239.028 53.276,238.858 53.472 C 238.657 53.704,238.513 54.215,238.445 54.937 C 238.387 55.555,238.213 56.239,238.051 56.481 C 237.891 56.721,237.645 57.141,237.505 57.416 C 237.365 57.691,237.137 57.933,237.000 57.955 C 236.682 58.004,235.711 56.348,235.575 55.525 C 235.520 55.191,235.338 54.579,235.171 54.167 C 235.004 53.754,234.778 52.978,234.669 52.442 C 234.559 51.906,234.334 51.231,234.167 50.942 C 234.001 50.653,233.812 50.079,233.748 49.667 C 233.684 49.254,233.499 48.692,233.337 48.417 C 233.175 48.142,232.994 47.480,232.935 46.946 C 232.876 46.412,232.681 45.688,232.502 45.336 C 232.322 44.985,232.126 44.372,232.067 43.974 C 232.007 43.576,231.812 43.007,231.633 42.710 C 231.455 42.414,231.238 41.669,231.151 41.055 C 231.043 40.294,230.858 39.762,230.571 39.386 L 230.150 38.833 225.168 38.833 C 221.997 38.833,220.149 38.894,220.082 39.001 M333.410 39.042 C 333.366 39.156,333.350 45.587,333.374 53.333 L 333.417 67.417 338.125 67.461 C 341.833 67.496,342.834 67.460,342.837 67.294 C 342.893 64.062,342.809 39.096,342.742 38.988 C 342.586 38.735,333.507 38.788,333.410 39.042 M350.201 39.032 C 349.879 39.355,349.920 46.059,350.246 46.330 C 350.432 46.485,351.873 46.520,356.204 46.477 C 361.856 46.421,362.333 46.456,362.333 46.929 C 362.333 47.138,356.911 52.665,353.656 55.774 C 353.066 56.337,351.813 57.578,350.872 58.530 L 349.160 60.261 349.205 63.839 L 349.250 67.417 363.167 67.417 L 377.083 67.417 377.128 63.713 L 377.173 60.010 369.926 59.963 C 361.008 59.906,361.440 60.056,363.742 57.813 C 364.624 56.953,365.811 55.770,366.381 55.184 C 366.951 54.598,368.149 53.398,369.044 52.518 C 369.939 51.637,371.947 49.650,373.506 48.102 L 376.340 45.288 376.295 42.102 L 376.250 38.917 363.326 38.874 C 353.412 38.841,350.355 38.878,350.201 39.032 M274.909 45.920 C 275.167 46.101,275.499 46.328,275.647 46.423 C 276.038 46.673,277.167 47.755,277.167 47.879 C 277.167 47.938,277.354 48.261,277.583 48.599 C 277.872 49.025,278.000 49.439,278.000 49.949 C 278.000 50.354,278.158 51.032,278.352 51.457 C 278.720 52.266,278.717 52.898,278.336 54.500 C 278.237 54.913,278.095 55.737,278.019 56.333 C 277.892 57.328,277.410 58.373,276.828 58.917 C 276.730 59.008,276.522 59.220,276.367 59.387 C 275.306 60.525,274.701 60.746,272.500 60.802 L 270.417 60.855 269.399 60.303 C 268.205 59.654,267.582 58.981,266.812 57.511 L 266.250 56.438 266.250 53.175 L 266.250 49.912 266.815 48.811 C 267.370 47.729,268.364 46.500,268.684 46.500 C 268.774 46.500,269.065 46.339,269.331 46.142 C 270.308 45.420,273.992 45.273,274.909 45.920 M312.886 45.692 C 313.086 45.797,313.287 45.932,313.333 45.992 C 313.379 46.052,313.691 46.268,314.027 46.472 C 314.832 46.961,315.639 48.247,315.838 49.357 C 315.926 49.848,316.088 50.625,316.197 51.083 C 316.453 52.155,316.451 53.366,316.190 54.417 C 316.076 54.875,315.929 55.789,315.863 56.449 C 315.774 57.332,315.648 57.749,315.384 58.032 C 315.186 58.244,314.973 58.624,314.910 58.878 C 314.847 59.132,314.578 59.507,314.312 59.711 C 314.046 59.916,313.612 60.252,313.348 60.458 C 312.653 61.002,309.084 61.028,308.472 60.493 C 308.258 60.306,307.835 60.005,307.532 59.823 C 307.228 59.641,306.865 59.251,306.726 58.955 C 306.586 58.659,306.328 58.154,306.152 57.833 C 305.977 57.512,305.834 57.081,305.834 56.874 C 305.833 56.668,305.683 56.219,305.500 55.877 C 304.164 53.384,305.731 47.833,308.265 46.083 C 309.050 45.541,312.108 45.282,312.886 45.692 M205.005 54.676 C 205.835 56.227,204.318 59.542,202.557 60.029 C 202.220 60.122,201.742 60.347,201.495 60.530 C 201.080 60.837,200.832 60.858,198.288 60.806 L 195.532 60.750 195.107 60.292 C 194.874 60.040,194.607 59.833,194.514 59.833 C 194.422 59.833,194.265 59.533,194.167 59.167 C 193.973 58.448,194.196 57.167,194.514 57.167 C 194.607 57.167,194.856 56.979,195.069 56.750 C 195.337 56.460,195.703 56.302,196.269 56.230 C 196.717 56.174,197.346 55.972,197.667 55.781 C 198.033 55.564,198.838 55.359,199.833 55.230 C 200.704 55.118,201.829 54.872,202.333 54.685 C 203.579 54.222,204.760 54.218,205.005 54.676 " stroke="none" fill="#ffffff" fill-rule="evenodd"></path></g></svg>